<?xml version="1.0" standalone="no"?>
<!DOCTYPE svg PUBLIC "-//W3C//DTD SVG 1.1//EN" "http://www.w3.org/Graphics/SVG/1.1/DTD/svg11.dtd" >

<svg>
<metadata>
Created by webfont
</metadata>
<defs>

<font id="Source Han Serif CN Heavy" horiz-adv-x="3000" vert-adv-y="3000" >
  <font-face
    
    font-family="Source Han Serif CN Heavy"
    
    font-weight="400"
    
    font-stretch="normal"
    
    units-per-em="1000"
    
    ascent="1151"
    
    descent="-286"
    
  />
    <missing-glyph />
    
    <glyph glyph-name="uni3002" unicode="&#x3002;" d="M183-84Q124-84 82-42Q40 0 40 59Q40 118 82 159.50Q124 201 183 201Q242 201 283.50 159.50Q325 118 325 59Q325 0 283.50-42Q242-84 183-84M183 163Q140 163 109 132.50Q78 102 78 59Q78 16 109-15Q140-46 183-46Q226-46 256.50-15Q287 16 287 59Q287 102 256.50 132.50Q226 163 183 163Z"  horiz-adv-x="1000" vert-adv-y="3000"  />

    
    <glyph glyph-name="uni4E00" unicode="&#x4E00;" d="M723 418L816 550Q920 459 980 402Q976 386 948 386L38 386L29 418L723 418Z"  horiz-adv-x="1000" vert-adv-y="3000"  />

    
    <glyph glyph-name="uni4E0D" unicode="&#x4E0D;" d="M601 513Q596 498 570 494L570-65Q568-72 529-83Q486-95 450-95L422-95L422 395Q251 202 28 94L22 102Q170 224 285 397Q398 568 437 724L43 724L35 752L738 752L821 857Q914 787 970 740Q966 724 940 724L629 724Q591 630 532 539L601 513M601 469Q764 446 862 383Q942 331 962 266Q979 207 943 174.50Q907 142 849 170Q769 325 593 462L601 469Z"  horiz-adv-x="1000" vert-adv-y="3000"  />

    
    <glyph glyph-name="uni4E3A" unicode="&#x4E3A;" d="M131 818Q247 800 303 748Q349 705 341 655Q333 608 290 591Q244 574 197 612Q188 717 124 813L131 818M969 526Q956 509 924 504Q917 223 902 115Q885-5 841-45Q792-89 673-89Q673-26 648 0Q617 34 538 50L539 61Q637 53 684 53Q705 53 720 65Q760 100 771 532L537 532Q528 470 517 428Q627 396 674 338Q714 288 700 237Q688 190 643 178Q595 164 549 208Q555 305 511 406Q419 80 35-90L26-77Q200 55 288 220Q359 354 381 532L67 532L58 560L384 560Q390 625 392 705L393 778L393 850L592 831Q589 808 555 803L553 743L550 682Q547 613 541 560L760 560L840 639L969 526Z"  horiz-adv-x="1000" vert-adv-y="3000"  />

    
    <glyph glyph-name="uni4E86" unicode="&#x4E86;" d="M934 715Q923 703 891 700Q748 608 602 543L612 542Q609 521 578 515L578 77Q578-5 542-39Q499-81 373-92Q363-14 335 12Q295 49 208 64L208 76Q372 66 402 66Q425 66 425 86L425 558L544 548Q626 623 707 726L108 726L99 754L716 754L799 832L934 715Z"  horiz-adv-x="1000" vert-adv-y="3000"  />

    
    <glyph glyph-name="uni4E8B" unicode="&#x4E8B;" d="M697 238L569 238L569 148L697 148L697 238M569 266L697 266L697 357L569 357L569 266M569 385L687 385L741 442L704 442L704 475L569 475L569 385M422 503L422 604L296 604L296 503L422 503M569 604L569 503L704 503L704 604L569 604M889 349Q955 292 992 254Q989 238 965 238L836 238L836 94Q835 86 796 72Q753 57 721 57L697 57L697 120L569 120L569 57Q569-19 537-49Q498-87 383-96Q377-29 353-5Q319 27 251 38L251 50Q375 43 400 43Q422 43 422 60L422 120L135 120L126 148L422 148L422 238L37 238L29 266L422 266L422 357L143 357L134 385L422 385L422 475L296 475L296 455Q296 445 255 430Q211 413 171 413L151 413L151 689L305 632L422 632L422 710L40 710L32 738L422 738L422 856L605 839Q603 816 569 810L569 738L750 738L825 829Q910 769 963 726Q959 710 934 710L569 710L569 632L694 632L757 698L886 603Q874 589 851 584L851 477Q850 471 820 461Q788 449 756 444L872 357Q860 343 836 338L836 273L889 349Z"  horiz-adv-x="1000" vert-adv-y="3000"  />

    
    <glyph glyph-name="uni4ECE" unicode="&#x4ECE;" d="M760 816Q757 793 723 787Q733 517 788 358Q849 179 983 88L982 76Q878 48 853-94Q739 52 716 496Q701 277 624 153Q530-2 304-93L296-80Q450 36 511 195Q489 167 455 166Q418 165 382 198Q381 282 350 372Q292 65 32-94L22-81Q164 94 201 347Q215 446 218 583Q219 633 218 706L218 833L412 816Q409 793 375 788L374 705L372 624Q369 531 363 465Q451 425 495 365Q533 314 533 261Q568 391 568 833L760 816Z"  horiz-adv-x="1000" vert-adv-y="3000"  />

    
    <glyph glyph-name="uni4EEC" unicode="&#x4EEC;" d="M382 801Q376 779 342 779Q302 666 249 574L305 554Q301 539 274 534L274-54Q272-64 236-78Q196-94 158-94L131-94L131 413Q87 365 33 323L22 330Q140 560 183 856L382 801M429 839Q525 829 575 791Q617 759 618 718Q619 680 588 660.50Q557 641 518 661Q511 656 491 653L491-51Q491-62 455-77Q416-94 377-94L353-94L353 704L502 690Q479 763 421 833L429 839M971 709Q959 694 931 687L931 58Q931-16 902-47Q865-86 758-96Q753-23 731 0Q704 34 636 46L636 59Q750 52 772.50 52Q795 52 795 73L795 709L641 709L632 737L785 737L846 806L971 709Z"  horiz-adv-x="1000" vert-adv-y="3000"  />

    
    <glyph glyph-name="uni4F1A" unicode="&#x4F1A;" d="M808 420Q894 356 946 312Q942 296 917 296L446 296L581 221Q572 204 544 208Q432 124 260 63Q463 61 705 64Q660 130 593 207L602 213Q744 183 824 119Q891 66 901 4Q910-52 872-79Q834-106 781-74Q762-27 725 34Q525-14 220-66Q206-85 188-92L129 69Q158 74 172 81Q225 102 296 172Q362 236 399 296L83 296L75 324L732 324L808 420M630 571Q704 517 749 478Q746 462 721 462L261 462L253 490L564 490L630 571M610 812Q604 792 558 788Q619 707 749 648Q844 605 981 572L980 556Q939 544 909 504Q882 468 875 426Q619 560 542 776Q469 661 322 552Q180 445 27 387L21 398Q150 482 265 618Q381 756 411 862L610 812Z"  horiz-adv-x="1000" vert-adv-y="3000"  />

    
    <glyph glyph-name="uni4F60" unicode="&#x4F60;" d="M315 544Q310 529 284 524L284-52Q282-61 246-76Q205-92 166-92L139-92L139 425Q82 366 22 325L11 332Q151 558 204 856L396 799Q387 777 355 778Q312 665 251 568L315 544M758 601Q755 579 723 573L723 70Q723-10 693-43Q656-84 547-94Q540-16 521 9Q495 45 430 57L430 70Q538 64 559 64Q580 64 580 80L580 400Q568 395 554 395Q463 192 312 84L300 92Q384 251 420 469L580 420L580 616L758 601M756 457Q874 400 932 319Q980 252 976 187Q973 127 932 108Q889 87 840 132Q829 262 746 452L756 457M990 608Q980 596 950 595Q878 519 794 470L787 476Q799 551 804 625L524 625Q438 503 319 427L308 435Q415 610 464 853L648 785Q640 763 606 766Q579 708 543 653L794 653L866 725L990 608Z"  horiz-adv-x="1000" vert-adv-y="3000"  />

    
    <glyph glyph-name="uni5206" unicode="&#x5206;" d="M498 775Q491 757 460 757Q307 473 28 363L21 372Q127 459 208 599Q279 720 313 847L498 775M704 500L826 395Q813 380 784 376Q774 175 754 81Q733-20 690-54Q636-97 534-97Q536-28 510-1Q477 33 398 49L398 60Q502 52 551 52Q572 52 585 62Q624 93 640 401L491 401Q472 236 398 134Q295-9 57-97L48-84Q218 24 283 164Q326 256 332 401L174 401L165 429L630 429L704 500M675 834Q663 810 634 775Q736 596 988 500L986 488Q954 474 923.50 436Q893 398 880 357Q645 510 579 858L589 863L675 834Z"  horiz-adv-x="1000" vert-adv-y="3000"  />

    
    <glyph glyph-name="uni53CB" unicode="&#x53CB;" d="M426 445Q468 317 558 232Q621 332 655 453L428 453L426 445M848 443Q840 429 805 425Q750 270 652 161Q778 84 992 44L991 32Q895 12 862-95Q674-26 572 84Q415-43 176-94L170-83Q381 4 511 166Q448 268 416 411Q313 82 36-69L25-61Q271 166 313 622L51 622L43 650L315 650Q323 743 323 855L524 842Q521 819 486 813L478 732Q473 686 468 650L737 650L817 752Q908 684 962 638Q958 622 932 622L464 622Q455 563 436 481L648 481L725 555L848 443Z"  horiz-adv-x="1000" vert-adv-y="3000"  />

    
    <glyph glyph-name="uni53D8" unicode="&#x53D8;" d="M326 576L326 683L76 683L68 711L478 711L469 716Q452 794 390 855L396 860Q551 874 591 808Q606 782 597 754Q588 726 562 711L730 711L801 804Q883 742 931 699Q927 683 903 683L671 683L671 381Q671 379 662.50 374.50Q654 370 641 366Q605 355 559 355L533 355L533 683L464 683L464 379Q464 377 455.50 372.50Q447 368 434 364Q398 353 352 353L326 353L326 550Q314 550 306 551Q206 429 45 369L35 378Q137 480 197 642L326 576M680 617Q803 608 870 560Q925 521 927 468Q930 420 892 397Q852 373 802 403Q772 516 673 611L680 617M308 300Q369 214 484 158Q570 230 616 300L308 300M834 284Q824 269 788 266Q718 179 615 108Q765 65 978 55L977 42Q886 17 862-95Q632-53 497 39Q297-61 31-93L26-81Q246-11 415 105Q333 187 287 300L181 300L172 328L619 328L707 404L834 284Z"  horiz-adv-x="1000" vert-adv-y="3000"  />

    
    <glyph glyph-name="uni548C" unicode="&#x548C;" d="M770 130L770 659L669 659L669 130L770 130M416 613Q485 552 527 510L527 719Q505 703 455 721Q411 711 352 703L352 518L416 613M954 658Q944 643 915 636L915 33Q913 24 873 9Q829-7 794-7L770-7L770 102L669 102L669 28Q669 14 633-3Q593-22 550-22L527-22L527 498Q520 490 503 490L352 490L352 419Q443 397 484 351Q519 314 510 273Q502 235 467 223Q429 210 392 242Q391 313 352 388L352-56Q352-59 343-65.50Q334-72 321-78Q283-95 238-95L212-95L212 249Q138 146 27 64L17 74Q128 226 182 490L44 490L36 518L212 518L212 688Q118 681 42 680L40 691Q243 759 382 857L527 722L527 746L674 687L760 687L825 759L954 658Z"  horiz-adv-x="1000" vert-adv-y="3000"  />

    
    <glyph glyph-name="uni56E0" unicode="&#x56E0;" d="M641 588Q714 528 756 488Q752 472 728 472L543 472Q538 427 533 398Q636 347 686 278Q729 219 725 163Q722 112 685.50 94.50Q649 77 605 114Q591 214 524 351Q476 153 257 57L248 69Q334 145 371 250Q401 336 407 472L265 472L257 500L408 500Q409 540 409 599L409 706L585 691Q580 668 550 664Q548 552 545 500L577 500L641 588M772 22L772 745L222 745L222 22L772 22M957 744Q945 729 917 722L917-45Q916-54 876-71Q832-89 795-89L772-89L772-6L222-6L222-41Q222-56 186-74Q147-94 104-94L80-94L80 834L234 773L762 773L829 847L957 744Z"  horiz-adv-x="1000" vert-adv-y="3000"  />

    
    <glyph glyph-name="uni5728" unicode="&#x5728;" d="M359 400Q353 386 327 380L327-54Q325-63 288-77Q247-92 208-92L180-92L180 279Q111 225 27 183L19 192Q190 344 294 616L51 616L43 644L304 644Q341 747 363 858L565 807Q560 787 527 784Q502 713 468 644L737 644L818 747Q909 678 964 632Q960 616 935 616L454 616Q395 503 320 414L359 400M835 98Q921 33 974-11Q970-27 944-27L343-27L335 1L539 1L539 308L368 308L360 336L539 336L539 573L718 558Q716 537 686 532L686 336L713 336L784 426Q864 366 912 324Q909 308 884 308L686 308L686 1L758 1L835 98Z"  horiz-adv-x="1000" vert-adv-y="3000"  />

    
    <glyph glyph-name="uni59CB" unicode="&#x59CB;" d="M788 32L788 287L621 287L621 32L788 32M257 584Q214 401 171 271L210 257L245 243Q294 384 311 584L257 584M847 387L964 297Q952 282 924 277L924-48Q924-50 916-55Q908-60 894-65Q858-77 812-77L788-77L788 4L621 4L621-58Q621-66 593-76Q559-88 515-88L491-88L491 365L489 364L438 516Q409 321 342 194Q421 147 450 98Q475 56 460 22Q447-9 411-18Q373-26 340-4Q314 45 274 91Q179-24 26-92L17-81Q139 10 211 159Q131 235 51 284Q90 405 128 584L30 584L21 612L135 612Q171 782 178 856L347 826Q341 804 307 802Q290 720 264 612L301 612L366 682L483 580Q474 565 444 561L442 542L439 522L446 524L456 528Q468 532 474 537Q513 571 563 676Q610 777 625 852L822 794Q815 774 787 773Q687 627 532 518Q652 516 830 518Q802 593 749 661L758 667Q875 635 935 574Q984 523 983 467Q981 416 943 396Q903 375 857 412Q852 452 841 487Q688 432 519 386Q508 373 495 367L632 315L783 315L847 387Z"  horiz-adv-x="1000" vert-adv-y="3000"  />

    
    <glyph glyph-name="uni5B8C" unicode="&#x5B8C;" d="M199 652Q217 534 148 491Q118 472 78.50 485Q39 498 27 537Q9 608 84 643Q112 657 134 683Q161 714 160 743L171 743Q185 712 193 680L494 680Q471 687 454 700Q456 793 392 847L397 852Q574 862 604 782Q616 751 598.50 720.50Q581 690 547 680L780 680L852 752L976 635Q966 623 937 622Q863 559 775 518L769 524Q780 575 788 652L199 652M658 596Q734 540 781 500Q777 484 753 484L227 484L219 512L591 512L658 596M933 75Q978 57 978 16Q978-29 934-48Q885-69 763-69L669-69Q584-69 557-45Q531-23 531 48L531 322L443 322Q429 150 363 67Q271-46 30-95L23-83Q183-7 242 103Q283 179 288 322L72 322L64 350L758 350L827 437Q906 378 953 338Q949 322 925 322L675 322L675 84Q675 66 704 66L839 66Q856 67 866.50 81.50Q877 96 921 207L930 207L933 75Z"  horiz-adv-x="1000" vert-adv-y="3000"  />

    
    <glyph glyph-name="uni5B9E" unicode="&#x5B9E;" d="M818 365Q906 293 957 245Q953 229 927 229L581 229Q573 207 560 183Q729 164 824 108Q901 62 914 3Q925-50 885.50-78.50Q846-107 795-79Q764-31 702 30Q628 101 543 157Q428-16 30-95L24-82Q349 34 426 229L64 229L56 257L436 257Q466 351 466 634L662 617Q659 595 626 589Q618 343 591 257L741 257L818 365M170 453Q280 456 337 419Q384 389 381 343Q378 301 339 281Q297 260 250 290Q235 377 164 448L170 453M244 618Q346 619 397 585Q440 557 437 515Q434 476 398 459Q360 440 316 467Q303 547 237 612L244 618M976 635Q966 623 937 622Q865 556 783 514L776 520Q787 587 790 652L197 652Q215 538 144 496Q113 478 75 492Q35 507 24 546Q5 619 84 652Q112 666 134 689Q161 716 160 743L170 743Q184 712 192 680L494 680Q471 687 454 700Q456 793 392 847L397 852Q574 862 604 782Q616 751 598.50 720.50Q581 690 547 680L780 680L851 752L976 635Z"  horiz-adv-x="1000" vert-adv-y="3000"  />

    
    <glyph glyph-name="uni5C31" unicode="&#x5C31;" d="M191 854Q292 854 342 820Q384 792 380 753Q376 714 339 697Q300 679 257 706Q243 781 184 849L191 854M38 653L30 681L388 681L455 774Q532 711 577 669Q573 653 548 653L38 653M382 280Q467 251 502 204Q531 165 519 126Q507 90 472 82Q434 74 401 108Q407 188 372 276L382 280M367 395L367 545L209 545L209 395L367 395M950 74Q985 55 985 17Q985-61 840-61L791-61Q728-61 708-37Q691-16 691 48L691 266Q635 32 430-95L420-81Q515 35 553 196Q583 323 586 534L539 534L537 541Q531 535 523 531Q512 525 500 523L500 357Q499 351 459 340Q419 329 390 329L367 329L367 367L359 367L359 59Q359-15 333-46Q299-87 204-94Q201-23 188-3Q170 29 120 37L120 50Q190 45 207 45Q224 45 224 62L224 218Q149 88 24 20L13 28Q76 136 103 293L224 253L224 367L209 367L209 355Q209 346 175 332Q137 317 101 317L83 317L83 624L214 573L357 573L416 637L535 549L531 562L586 562Q587 613 586 704L585 779L585 856L763 840Q759 816 726 811L725 746L725 683L723 562L800 562L853 632Q821 632 795 657Q796 733 757 810L766 814Q892 786 916 720Q925 694 914 670Q904 648 881 637Q904 619 930 597Q964 569 985 550Q982 534 957 534L824 534L824 87Q824 69 838 69L856 69Q869 69 874 70Q886 70 893 82Q900 94 912 135L924 174L936 216L946 216L950 74Z"  horiz-adv-x="1000" vert-adv-y="3000"  />

    
    <glyph glyph-name="uni5DF2" unicode="&#x5DF2;" d="M886 107Q933 91 949 81Q967 68 967 49Q967-6 913-31Q847-62 683-62L397-62Q258-62 197-18Q131 29 131 139L131 625L311 610Q308 589 279 584L279 462L687 462L687 740L91 740L82 768L676 768L744 843L881 737Q867 720 837 713L837 391Q836 383 794 368Q747 351 712 351L687 351L687 434L279 434L279 136Q279 104 304.50 91Q330 78 394 78L674 78Q768 78 796 107Q829 148 875 266L885 266L886 107Z"  horiz-adv-x="1000" vert-adv-y="3000"  />

    
    <glyph glyph-name="uni5F00" unicode="&#x5F00;" d="M571 417L571 728L435 728L435 417L571 417M856 524Q934 451 976 405Q972 389 948 389L726 389L726-46Q726-50 718-56Q708-63 693-70Q653-87 600-87L571-87L571 389L434 389Q429 216 361 114Q268-24 34-93L28-86Q172 4 230 130Q277 230 281 389L41 389L33 417L281 417L281 728L83 728L75 756L746 756L813 845Q890 785 935 744Q931 728 907 728L726 728L726 417L788 417L856 524Z"  horiz-adv-x="1000" vert-adv-y="3000"  />

    
    <glyph glyph-name="uni5F97" unicode="&#x5F97;" d="M368 767Q361 750 330 753Q195 633 24 558L16 567Q68 626 124 713Q175 793 204 856L368 767M385 568Q376 551 346 553Q311 507 269 462L316 444Q311 430 285 424L285-52Q284-62 249-78Q210-96 171-96L145-96L145 346Q83 297 20 261L12 270Q75 348 135 464Q188 569 216 657L385 568M418 216Q518 212 567 176Q608 146 603 105Q597 67 561 51Q521 34 479 63Q467 138 411 211L418 216M725 514L725 620L541 620L541 514L725 514M541 753L541 648L725 648L725 753L541 753M872 343Q942 285 982 245Q978 229 954 229L813 229L813 56Q813-19 784-50Q747-90 643-97Q640-27 625-6Q604 26 550 36L550 47Q629 42 647.50 42Q666 42 666 59L666 229L325 229L317 257L666 257L666 364L373 364L365 392L755 392L802 456Q772 452 750 452L725 452L725 486L541 486L541 461Q541 453 512 443Q477 431 430 431L405 431L405 835L551 781L721 781L786 854L906 763Q897 749 868 744L868 480Q868 478 862 475Q855 470 844 467L893 426Q927 397 946 380Q942 364 917 364L813 364L813 261L872 343Z"  horiz-adv-x="1000" vert-adv-y="3000"  />

    
    <glyph glyph-name="uni6210" unicode="&#x6210;" d="M261 435L261 433Q261 366 257 317Q251 249 236 192L273 190Q293 189 307 189Q325 189 333 196Q354 216 360 435L261 435M939 67Q994-34 963-61Q924-96 858-74Q804-57 762-16Q709 35 667 101Q536-22 353-84L346-73Q507 25 616 193Q537 361 517 619L261 619L261 463L351 463L418 527L533 431Q521 417 494 413Q489 244 477 180Q464 113 428 86Q383 53 308 53Q308 120 294 141Q276 168 234 180L234 185Q183-1 22-100L15-93Q78 11 101 165Q116 267 116 433L116 703L282 647L515 647Q509 749 509 854L688 837Q686 813 652 808Q650 715 654 647L764 647L798 690Q784 694 777 698Q756 768 690 822L697 828Q817 842 864 797Q903 759 871 716Q878 710 895 697L921 677L972 635Q968 619 943 619L655 619Q665 464 701 356Q737 441 760 543L943 481Q936 461 904 462Q850 324 768 213Q802 161 850 119Q869 99 884 121Q919 172 957 249L966 246L939 67Z"  horiz-adv-x="1000" vert-adv-y="3000"  />

    
    <glyph glyph-name="uni6211" unicode="&#x6211;" d="M539 530Q531 611 529 711Q507 706 474 718Q437 708 385 697L385 530L539 530M944 65Q998-26 969-57Q934-93 872-76Q821-63 777-25Q716 27 669 98Q544-5 381-57L374-46Q516 38 624 179Q563 308 542 502L385 502L385 368L466 379L548 391L549 380Q481 343 385 299L385 75Q385-4 354-40Q314-86 207-94Q204-20 181 8Q152 43 83 55L83 67Q197 60 222 60Q243 60 243 80L243 238L116 187Q107 167 86 162L25 325Q97 332 243 350L243 502L34 502L26 530L243 530L243 673Q133 659 27 653L25 663Q249 742 397 849L528 735Q527 768 527 836L705 819Q703 795 670 790Q667 639 676 530L776 530L844 611Q808 606 776 632Q774 721 714 796L722 801Q873 782 899 705Q909 675 894.50 648Q880 621 852 613L861 607L867 602L906 574Q952 540 979 518Q975 502 951 502L679 502Q690 404 715 324Q755 401 781 482L948 406Q938 387 908 391Q853 286 775 198Q809 146 856 110Q876 93 889 113Q923 164 959 241L968 238L944 65Z"  horiz-adv-x="1000" vert-adv-y="3000"  />

    
    <glyph glyph-name="uni6539" unicode="&#x6539;" d="M471 216Q418 167 341 109Q244 34 136-35Q122-55 102-65L24 101Q65 124 65 156L65 547L218 478L277 478L277 720L39 720L30 748L267 748L329 813L452 720Q442 707 417 701L417 424Q416 416 377 402Q334 386 301 386L277 386L277 450L204 450L204 146Q326 180 469 225L471 216M614 576Q586 524 558 484Q590 349 659 259Q728 395 744 576L614 576M902 576Q868 328 745 173Q834 104 975 66L972 55Q876 28 854-78Q730-21 661 88Q513-39 260-95L255-85Q491 14 612 182Q567 292 543 464Q473 370 380 304L369 312Q505 544 540 857L738 809Q731 787 698 786Q671 694 628 604L795 604L864 697Q943 634 990 592Q986 576 961 576L902 576Z"  horiz-adv-x="1000" vert-adv-y="3000"  />

    
    <glyph glyph-name="uni662F" unicode="&#x662F;" d="M341 750L341 646L663 646L663 750L341 750M663 512L663 618L341 618L341 512L663 512M341 456Q341 444 299 427Q254 409 210 409L188 409L188 839L349 778L653 778L719 851L856 748Q851 741 842 736Q831 729 817 726L817 461Q816 455 772 442Q724 429 690 429L663 429L663 484L341 484L341 456M589 45L801 45Q923 46 975 47L975 36Q911 20 911-78L628-78Q491-78 420-38Q342 6 304 119Q217-23 19-93L13-84Q112-8 161 109Q200 201 205 314L399 281Q394 256 360 256Q345 196 319 146Q361 86 435 63L435 357L35 357L27 385L777 385L848 483Q928 417 975 373Q971 357 946 357L589 357L589 220L672 220L749 325Q837 255 889 208Q885 192 859 192L589 192L589 45Z"  horiz-adv-x="1000" vert-adv-y="3000"  />

    
    <glyph glyph-name="uni670B" unicode="&#x670B;" d="M340 317L340 512L242 512L242 376Q241 344 239 317L340 317M242 727L242 540L340 540L340 727L242 727M476 68Q476-5 448-35Q413-72 312-80Q309-12 291 11Q267 43 211 54L211 66Q301 61 320.50 61Q340 61 340 81L340 289L237 289Q213 32 29-93L20-86Q79 13 99 161Q112 257 112 433L112 807L262 755L330 755L391 824L516 727Q504 712 476 705L476 68M792 317L792 512L683 512L683 379Q682 345 680 317L792 317M683 727L683 540L792 540L792 727L683 727M968 727Q956 712 928 705L928 55Q928-18 900-48Q865-85 763-94Q758-24 740-2Q714 31 658 41L658 53Q752 48 772 48Q792 48 792 68L792 289L678 289Q654 33 480-92L470-86Q524 15 542 165Q553 259 553 440L553 807L703 755L782 755L843 824L968 727Z"  horiz-adv-x="1000" vert-adv-y="3000"  />

    
    <glyph glyph-name="uni73B0" unicode="&#x73B0;" d="M406 218Q290 116 108-4Q102-26 81-34L9 125Q21 128 32 130Q46 134 60 137Q96 145 130 154L130 432L36 432L28 460L130 460L130 721L24 721L16 749L238 749L303 838Q376 778 419 737Q415 721 391 721L269 721L269 460L278 460L325 541Q379 484 407 448Q403 432 381 432L269 432L269 190L336 208L404 227L406 218M949 54Q982 39 982 5Q982-69 822-69L758-69Q694-69 674-48Q655-29 655 30L655 143Q555-13 252-91L244-77Q501 32 566 223Q600 325 601 676L773 661Q768 637 737 633Q733 415 721 333L787 327L787 746L554 746L554 257Q554 248 526 237Q492 224 447 224L423 224L423 827L565 774L783 774L848 848L966 756Q954 740 925 735L925 269Q925 266 916.50 260.50Q908 255 894 250Q857 236 811 236L787 236L787 305Q783 303 773 301L773 63Q773 47 793 47L872 47Q885 48 892 60Q901 78 935 188L946 188L949 54Z"  horiz-adv-x="1000" vert-adv-y="3000"  />

    
    <glyph glyph-name="uni7684" unicode="&#x7684;" d="M319 89L319 351L196 351L196 89L319 89M196 627L196 379L319 379L319 627L196 627M981 627Q969 611 936 606Q930 275 917 150Q901 7 858-37Q802-93 698-93Q698-20 674 7Q644 41 566 58L567 70Q663 62 709 62Q732 62 746 75Q788 112 797 631L643 631Q566 503 460 420L454 424L454 19Q453 11 415-3Q373-18 341-18L319-18L319 61L196 61L196-8Q196-21 163-37Q127-54 87-54L66-54L66 710L192 658Q195 695 199 754L202 804L204 850L397 804Q390 779 354 779Q309 727 243 655L309 655L371 724L494 627Q482 612 454 605L454 438Q537 625 571 852L757 798Q751 777 717 777Q692 716 660 659L785 659L860 735L981 627M526 456Q635 431 686 377Q728 332 720 283Q712 237 671 223Q628 207 584 245Q581 350 518 451L526 456Z"  horiz-adv-x="1000" vert-adv-y="3000"  />

    
    <glyph glyph-name="uni7ECF" unicode="&#x7ECF;" d="M407 721L398 749L682 749L768 830L905 712Q898 698 865 695Q811 612 733 544Q838 546 904 512Q959 483 974 438Q987 397 961 368Q933 338 884 347Q807 432 685 505Q539 396 347 342L341 352Q578 503 682 721L407 721M21 320Q52 326 65 335Q116 365 189 461L108 426Q96 414 86 410L20 571Q47 577 59 585Q96 613 144 701Q189 785 204 847L385 767Q378 751 352 752Q263 647 124 567Q159 567 261 569Q294 625 309 668L484 581Q475 563 445 566Q330 431 138 320Q265 325 415 334L415 323Q362 295 296 265Q210 225 120 190Q105 168 87 160L21 320M442 178Q320 77 112-44Q101-68 82-72L18 102Q75 110 193 133Q320 158 441 186L442 178M861 80Q936 22 981-18Q977-34 953-34L352-34L344-6L580-6L580 277L416 277L408 305L733 305L798 390Q872 333 916 293Q912 277 888 277L728 277L728-6L795-6L861 80Z"  horiz-adv-x="1000" vert-adv-y="3000"  />

    
    <glyph glyph-name="uni8BB0" unicode="&#x8BB0;" d="M105 852Q225 845 290 800Q344 763 347 713Q349 666 311 644Q272 620 222 648Q189 745 98 846L105 852M399 203Q386 182 372 162L335 109Q286 41 234-21Q221-55 198-71L96 76Q131 97 141 109.50Q151 122 151 140L151 537L34 537L25 565L153 565L216 627L329 533Q323 526 316 523Q305 517 289 515L289 155Q307 164 342 183L396 211L399 203M928 82Q982 63 982 28Q982-16 927-31.50Q872-47 710-47L578-47Q479-47 446-25Q410-2 410 68L410 503L564 446L739 446L739 738L378 738L369 766L726 766L793 843L935 734Q927 725 915 718Q900 709 881 706L881 363Q880 357 839 345Q794 333 762 333L739 333L739 418L550 418L550 94Q550 79 559.50 74Q569 69 597 69L725 69Q801 69 820 70Q843 71 857 85Q877 113 915 206L925 206L928 82Z"  horiz-adv-x="1000" vert-adv-y="3000"  />

    
    <glyph glyph-name="uni8D77" unicode="&#x8D77;" d="M237 383Q227 371 204 370Q194 268 172 179Q201 139 237 116L237 383M367 69Q435 57 575 57L775 57Q919 58 981 60L981 48Q909 31 905-65L572-65Q399-65 309-25Q209 19 159 134Q113-12 27-97L16-89Q58 12 76 164Q91 292 86 424L237 396L237 473L398 457Q395 437 367 433L367 312L375 312L434 401Q490 350 528 311L528 496Q520 494 513 494L38 494L30 522L214 522L214 661L69 661L61 689L214 689L214 855L381 841Q379 822 351 817L351 689L367 689L428 770Q496 715 537 677Q533 661 509 661L351 661L351 522L364 522L427 607Q486 560 528 522L528 599L674 545L755 545L755 748L519 748L510 776L744 776L805 843L933 747Q919 729 890 724L890 494Q889 488 850 476Q808 464 778 464L755 464L755 517L661 517L661 268Q661 256 666.50 252.50Q672 249 692 249L772 249Q823 249 835 250Q852 250 863 262Q876 283 912 376L922 376L925 258Q968 241 968 205Q968 163 923 145Q874 125 756 125L660 125Q579 125 553.50 147Q528 169 528 236L528 288Q521 284 511 284L367 284L367 69Z"  horiz-adv-x="1000" vert-adv-y="3000"  />

    
    <glyph glyph-name="uni8FD9" unicode="&#x8FD9;" d="M514 842Q623 839 675 800Q718 767 710 723Q703 682 662 666Q618 648 572 682Q566 768 508 837L514 842M68 834Q184 812 243 759Q292 714 290 663Q288 615 248 596Q208 577 161 611Q141 714 60 829L68 834M858 615Q831 479 763 375Q833 324 865 267Q894 217 889 174Q883 134 851.50 119.50Q820 105 777 127Q741 198 677 271Q554 153 351 95Q447 57 674 57Q841 57 981 66L981 55Q940 45 915 9Q891-24 886-70L626-70Q470-70 385-26Q308 13 247 112Q229 145 211 111L194 77L171 34Q139-26 122-63Q125-77 111-86L17 59Q38 70 75 91L105 109L135 126L135 462L15 462L9 490L119 490L184 576L321 467Q306 451 268 444L268 146Q296 121 332 103Q514 196 607 345Q508 441 393 508L402 517Q545 488 655 437Q689 519 701 615L348 615L340 643L758 643L834 736Q919 674 971 631Q967 615 941 615L858 615Z"  horiz-adv-x="1000" vert-adv-y="3000"  />

    
    <glyph glyph-name="uni90A3" unicode="&#x90A3;" d="M386 314Q390 416 391 509L318 509Q311 393 297 314L386 314M323 732Q321 602 319 537L392 537Q394 624 395 732L323 732M459 839L580 728Q567 712 533 706Q528 284 517 159Q503 15 458-33Q404-93 309-93Q309-16 294 8Q274 41 217 57L218 69Q274 65 309 65Q331 65 344 78Q374 107 384 286L291 286Q236 38 25-99L14-85Q133 65 164 286L50 286L41 314L167 314Q175 389 179 509L55 509L46 537L179 537Q180 574 179 632L179 732L53 732L44 760L382 760L459 839M999 705Q988 690 953 689Q915 626 879 573Q829 500 788 454Q875 410 922 332Q964 264 964 193Q964 20 790 19Q790 54 786 88Q782 127 775 140Q764 162 730 172L730 183L788 183Q801 183 808 188Q828 200 828 238Q828 366 762 451Q789 586 799 730L728 730L728-54Q728-58 720-65.50Q712-73 698-79Q662-97 615-97L589-97L589 827L741 758L789 758L860 828L999 705Z"  horiz-adv-x="1000" vert-adv-y="3000"  />

    
    <glyph glyph-name="uni949F" unicode="&#x949F;" d="M807 317L807 590L755 590L755 317L807 317M619 317L619 590L571 590L571 317L619 317M980 590Q969 575 940 568L940 249Q939 243 901 231Q860 218 830 218L807 218L807 289L755 289L755-57Q755-67 721-80Q683-95 645-95L619-95L619 289L571 289L571 242Q571 232 536 217Q497 200 458 200L439 200L439 338Q434 334 422 334L295 334L295 127Q369 158 423 183L426 175Q399 136 361 89Q312 27 259-30Q252-59 236-79L103 41Q140 70 150.50 82.50Q161 95 161 112L161 334L30 334L22 362L161 362L161 499L94 499L89 516Q56 485 20 459L12 465Q54 538 90 660Q123 770 134 854L313 798Q306 777 272 774Q256 737 239 708L281 708L339 789Q405 733 443 696Q440 680 416 680L222 680Q168 594 100 527L261 527L319 611Q386 553 424 515Q420 499 396 499L295 499L295 368L348 445Q402 397 439 359L439 672L577 618L619 618L619 850L801 832Q796 803 755 798L755 618L797 618L856 684L980 590Z"  horiz-adv-x="1000" vert-adv-y="3000"  />

    
    <glyph glyph-name="uniFF0C" unicode="&#xFF0C;" d="M39-203Q96-175 129-131Q156-95 163-54L154-51L125-39Q101-29 84-17Q39 15 39 64Q39 102 66 129.50Q93 157 135.50 157Q178 157 207 128Q237 96 237 41Q237-43 196-114Q148-197 56-236L39-203Z"  horiz-adv-x="1000" vert-adv-y="3000"  />

    

  </font>
</defs>
</svg>
